<?xml version="1.0" encoding="utf-8"?>
<!-- Generator: Adobe Illustrator 19.2.1, SVG Export Plug-In . SVG Version: 6.00 Build 0)  -->
<svg version="1.1" id="Capa_1" xmlns="http://www.w3.org/2000/svg" xmlns:xlink="http://www.w3.org/1999/xlink" x="0px" y="0px"
	 viewBox="0 0 27.1 16.3" style="enable-background:new 0 0 27.1 16.3;" xml:space="preserve">
<style type="text/css">
	.st0{fill:#FCFCFC;}
</style>
<g>
	<path class="st0" d="M0,14.5V1.8C0,0.8,1,0,2.2,0h22.8c1.2,0,2.2,0.8,2.2,1.8v12.6c0,1-1,1.8-2.2,1.8H2.2C1,16.3,0,15.5,0,14.5z
		 M2.2,0.7c-0.7,0-1.3,0.5-1.3,1.1v12.6c0,0.6,0.6,1.1,1.3,1.1h22.8c0.7,0,1.3-0.5,1.3-1.1V1.8c0-0.6-0.6-1.1-1.3-1.1H2.2z"/>
	<path class="st0" d="M12,9.5L0.8,1.3c-0.2-0.1-0.2-0.4,0-0.5c0.2-0.2,0.4-0.2,0.6,0L12.5,9c0.6,0.4,1.5,0.4,2.1,0l11.2-8.2
		c0.2-0.1,0.5-0.1,0.6,0c0.2,0.2,0.1,0.4,0,0.5L15.2,9.5c-0.4,0.3-1,0.5-1.6,0.5C13,10,12.4,9.8,12,9.5z"/>
</g>
</svg>
